<?xml version="1.0" standalone="yes"?>
<svg width="800" height="600">
<path style="fill:#ffffff; stroke:none;" d="M0 0L0 600L352 600L352 297L245 297C232.495 297 211.681 292.956 200.093 297.603C194.902 299.686 191.904 307.589 188.997 312L163.947 351L100.308 450C89.6019 466.622 76.4567 483.12 68 501C57.1223 494.031 71.8252 480.239 77.0532 472L129.308 391L288.692 143L333.692 73C339.698 63.6754 350.538 52.1716 352 41L361 41L361 288C404.991 288.029 466.961 293.362 500.961 324.289C540.728 360.463 532.473 436.014 490 466.572C455.007 491.747 402.92 496 361 496L361 600L800 600L800 0L0 0z"/>
<path style="fill:#111111; stroke:none;" d="M352 41C349.403 52.323 339.229 63.2674 333.053 73L287.424 144C235.316 227.22 182.022 310.013 127.997 392L75.8079 473C71.1213 480.543 55.7129 495.515 68 501L162.656 354L188.333 314C191.577 309.101 194.753 300.932 200.093 298.028L213 297L243 297L352 297L352 600L361 600L361 496C403.25 496 455.702 491.967 491 466.572C532.919 436.413 540.32 360.166 501.91 324.289C474.514 298.699 431.529 294.227 396 290.83L361 288L361 41L352 41z"/>
<path style="fill:#ffffff; stroke:none;" d="M351 60L255.308 209C238.764 234.685 218.06 260.386 205 288L352 288L352 127L352 81C352 74.5797 353.497 65.951 351 60M361 296L361 488C399.393 488 450.551 484.994 483 462.279C523.817 433.705 533.162 360.796 493 327.326C475.63 312.85 452.637 307.778 431 303.739C408.203 299.484 384.221 296 361 296z"/>
</svg>
